<svg width="56" height="56" viewBox="0 0 56 56" fill="none" xmlns="http://www.w3.org/2000/svg">
<rect width="56" height="56" rx="14" fill="url(#paint0_linear_675_1637)"/>
<path d="M37.9999 32.9201V35.9201C38.0011 36.1986 37.944 36.4743 37.8324 36.7294C37.7209 36.9846 37.5572 37.2137 37.352 37.402C37.1468 37.5902 36.9045 37.7336 36.6407 37.8228C36.3769 37.912 36.0973 37.9452 35.8199 37.9201C32.7428 37.5857 29.7869 36.5342 27.1899 34.8501C24.7738 33.3148 22.7253 31.2663 21.1899 28.8501C19.4999 26.2413 18.4482 23.2711 18.1199 20.1801C18.0949 19.9036 18.1278 19.6249 18.2164 19.3617C18.3051 19.0986 18.4475 18.8568 18.6347 18.6517C18.8219 18.4466 19.0497 18.2828 19.3037 18.1706C19.5577 18.0584 19.8323 18.0004 20.1099 18.0001H23.1099C23.5952 17.9953 24.0657 18.1672 24.4337 18.4836C24.8017 18.8001 25.042 19.2395 25.1099 19.7201C25.2366 20.6802 25.4714 21.6228 25.8099 22.5301C25.9445 22.888 25.9736 23.277 25.8938 23.651C25.8141 24.0249 25.6288 24.3682 25.3599 24.6401L24.0899 25.9101C25.5135 28.4136 27.5864 30.4865 30.0899 31.9101L31.3599 30.6401C31.6318 30.3712 31.9751 30.1859 32.3491 30.1062C32.723 30.0264 33.112 30.0556 33.4699 30.1901C34.3772 30.5286 35.3199 30.7635 36.2799 30.8901C36.7657 30.9586 37.2093 31.2033 37.5265 31.5776C37.8436 31.9519 38.0121 32.4297 37.9999 32.9201Z" stroke="#A78BFA" stroke-width="2" stroke-linecap="round"/>
<defs>
<linearGradient id="paint0_linear_675_1637" x1="0" y1="0" x2="56" y2="56" gradientUnits="userSpaceOnUse">
<stop stop-color="#8B5CF6" stop-opacity="0.2"/>
<stop offset="1" stop-color="#EC4899" stop-opacity="0.2"/>
</linearGradient>
</defs>
</svg>
