<svg width="160" height="28" viewBox="0 0 160 28" fill="none" xmlns="http://www.w3.org/2000/svg">
<g clip-path="url(#clip0_675_1046)">
<g clip-path="url(#clip1_675_1046)">
<path d="M14.4543 1.55198L17.3134 8.07308C17.4211 8.31846 17.5926 8.53048 17.81 8.68703C18.0274 8.84357 18.2829 8.93891 18.5497 8.9631L25.5147 9.58759C26.3028 9.70234 26.6172 10.6687 26.0458 11.2254L20.7991 15.6328C20.3743 15.9897 20.181 16.5505 20.2978 17.0922L21.823 24.2314C21.9568 25.0152 21.1348 25.6142 20.4295 25.2424L14.3503 21.6824C14.121 21.5478 13.86 21.4768 13.5941 21.4768C13.3283 21.4768 13.0672 21.5478 12.8379 21.6824L6.75862 25.2403C6.05553 25.6099 5.23136 25.013 5.36519 24.2292L6.89032 17.09C7.00502 16.5483 6.81385 15.9877 6.38902 15.6307L1.14028 11.2274C0.571003 10.6731 0.885376 9.70447 1.67131 9.58972L8.63636 8.96522C8.9032 8.94103 9.15865 8.84569 9.3761 8.68915C9.59354 8.5326 9.76502 8.32058 9.87258 8.07521L12.7317 1.5541C13.0864 0.840393 14.1017 0.840393 14.4543 1.55198Z" fill="#FDD835"/>
<path d="M14.2467 8.46485L13.7624 3.66005C13.7433 3.39241 13.6881 2.93359 14.1171 2.93359C14.457 2.93359 14.6418 3.64093 14.6418 3.64093L16.0947 7.49837C16.6427 8.96615 16.4176 9.46957 15.8887 9.76697C15.2812 10.1068 14.3848 9.84132 14.2467 8.46485Z" fill="#FFFF8D"/>
<path d="M20.2377 15.2063L24.4053 11.9543C24.6113 11.7822 24.983 11.5082 24.6857 11.196C24.4499 10.9496 23.8126 11.3043 23.8126 11.3043L20.1655 12.7296C19.0779 13.1056 18.3557 13.6621 18.292 14.3631C18.2092 15.2977 19.0482 16.0178 20.2377 15.2063Z" fill="#F4B400"/>
</g>
</g>
<g clip-path="url(#clip2_675_1046)">
<g clip-path="url(#clip3_675_1046)">
<path d="M47.4543 1.55198L50.3134 8.07308C50.4211 8.31846 50.5926 8.53048 50.81 8.68703C51.0274 8.84357 51.2829 8.93891 51.5497 8.9631L58.5147 9.58759C59.3028 9.70234 59.6172 10.6687 59.0458 11.2254L53.7991 15.6328C53.3743 15.9897 53.181 16.5505 53.2978 17.0922L54.823 24.2314C54.9568 25.0152 54.1348 25.6142 53.4295 25.2424L47.3503 21.6824C47.121 21.5478 46.86 21.4768 46.5941 21.4768C46.3283 21.4768 46.0672 21.5478 45.8379 21.6824L39.7586 25.2403C39.0555 25.6099 38.2314 25.013 38.3652 24.2292L39.8903 17.09C40.005 16.5483 39.8138 15.9877 39.389 15.6307L34.1403 11.2274C33.571 10.6731 33.8854 9.70447 34.6713 9.58972L41.6364 8.96522C41.9032 8.94103 42.1587 8.84569 42.3761 8.68915C42.5935 8.5326 42.765 8.32058 42.8726 8.07521L45.7317 1.5541C46.0864 0.840393 47.1017 0.840393 47.4543 1.55198Z" fill="#FDD835"/>
<path d="M47.2467 8.46485L46.7624 3.66005C46.7433 3.39241 46.6881 2.93359 47.1171 2.93359C47.457 2.93359 47.6418 3.64093 47.6418 3.64093L49.0947 7.49837C49.6427 8.96615 49.4176 9.46957 48.8887 9.76697C48.2812 10.1068 47.3848 9.84132 47.2467 8.46485Z" fill="#FFFF8D"/>
<path d="M53.2377 15.2063L57.4053 11.9543C57.6113 11.7822 57.983 11.5082 57.6857 11.196C57.4499 10.9496 56.8126 11.3043 56.8126 11.3043L53.1655 12.7296C52.0779 13.1056 51.3557 13.6621 51.292 14.3631C51.2092 15.2977 52.0482 16.0178 53.2377 15.2063Z" fill="#F4B400"/>
</g>
</g>
<g clip-path="url(#clip4_675_1046)">
<g clip-path="url(#clip5_675_1046)">
<path d="M80.4543 1.55198L83.3134 8.07308C83.4211 8.31846 83.5926 8.53048 83.81 8.68703C84.0274 8.84357 84.2829 8.93891 84.5497 8.9631L91.5147 9.58759C92.3028 9.70234 92.6172 10.6687 92.0458 11.2254L86.7991 15.6328C86.3743 15.9897 86.181 16.5505 86.2978 17.0922L87.823 24.2314C87.9568 25.0152 87.1348 25.6142 86.4295 25.2424L80.3503 21.6824C80.121 21.5478 79.86 21.4768 79.5941 21.4768C79.3283 21.4768 79.0672 21.5478 78.8379 21.6824L72.7586 25.2403C72.0555 25.6099 71.2314 25.013 71.3652 24.2292L72.8903 17.09C73.005 16.5483 72.8138 15.9877 72.389 15.6307L67.1403 11.2274C66.571 10.6731 66.8854 9.70447 67.6713 9.58972L74.6364 8.96522C74.9032 8.94103 75.1587 8.84569 75.3761 8.68915C75.5935 8.5326 75.765 8.32058 75.8726 8.07521L78.7317 1.5541C79.0864 0.840393 80.1017 0.840393 80.4543 1.55198Z" fill="#FDD835"/>
<path d="M80.2467 8.46485L79.7624 3.66005C79.7433 3.39241 79.6881 2.93359 80.1171 2.93359C80.457 2.93359 80.6418 3.64093 80.6418 3.64093L82.0947 7.49837C82.6427 8.96615 82.4176 9.46957 81.8887 9.76697C81.2812 10.1068 80.3848 9.84132 80.2467 8.46485Z" fill="#FFFF8D"/>
<path d="M86.2377 15.2063L90.4053 11.9543C90.6113 11.7822 90.983 11.5082 90.6857 11.196C90.4499 10.9496 89.8126 11.3043 89.8126 11.3043L86.1655 12.7296C85.0779 13.1056 84.3557 13.6621 84.292 14.3631C84.2092 15.2977 85.0482 16.0178 86.2377 15.2063Z" fill="#F4B400"/>
</g>
</g>
<g clip-path="url(#clip6_675_1046)">
<g clip-path="url(#clip7_675_1046)">
<path d="M113.454 1.55198L116.313 8.07308C116.421 8.31846 116.593 8.53048 116.81 8.68703C117.027 8.84357 117.283 8.93891 117.55 8.9631L124.515 9.58759C125.303 9.70234 125.617 10.6687 125.046 11.2254L119.799 15.6328C119.374 15.9897 119.181 16.5505 119.298 17.0922L120.823 24.2314C120.957 25.0152 120.135 25.6142 119.43 25.2424L113.35 21.6824C113.121 21.5478 112.86 21.4768 112.594 21.4768C112.328 21.4768 112.067 21.5478 111.838 21.6824L105.759 25.2403C105.056 25.6099 104.231 25.013 104.365 24.2292L105.89 17.09C106.005 16.5483 105.814 15.9877 105.389 15.6307L100.14 11.2274C99.571 10.6731 99.8854 9.70447 100.671 9.58972L107.636 8.96522C107.903 8.94103 108.159 8.84569 108.376 8.68915C108.594 8.5326 108.765 8.32058 108.873 8.07521L111.732 1.5541C112.086 0.840393 113.102 0.840393 113.454 1.55198Z" fill="#FDD835"/>
<path d="M113.247 8.46485L112.762 3.66005C112.743 3.39241 112.688 2.93359 113.117 2.93359C113.457 2.93359 113.642 3.64093 113.642 3.64093L115.095 7.49837C115.643 8.96615 115.418 9.46957 114.889 9.76697C114.281 10.1068 113.385 9.84132 113.247 8.46485Z" fill="#FFFF8D"/>
<path d="M119.238 15.2063L123.405 11.9543C123.611 11.7822 123.983 11.5082 123.686 11.196C123.45 10.9496 122.813 11.3043 122.813 11.3043L119.166 12.7296C118.078 13.1056 117.356 13.6621 117.292 14.3631C117.209 15.2977 118.048 16.0178 119.238 15.2063Z" fill="#F4B400"/>
</g>
</g>
<g clip-path="url(#clip8_675_1046)">
<g clip-path="url(#clip9_675_1046)">
<path d="M146.454 1.55198L149.313 8.07308C149.421 8.31846 149.593 8.53048 149.81 8.68703C150.027 8.84357 150.283 8.93891 150.55 8.9631L157.515 9.58759C158.303 9.70234 158.617 10.6687 158.046 11.2254L152.799 15.6328C152.374 15.9897 152.181 16.5505 152.298 17.0922L153.823 24.2314C153.957 25.0152 153.135 25.6142 152.43 25.2424L146.35 21.6824C146.121 21.5478 145.86 21.4768 145.594 21.4768C145.328 21.4768 145.067 21.5478 144.838 21.6824L138.759 25.2403C138.056 25.6099 137.231 25.013 137.365 24.2292L138.89 17.09C139.005 16.5483 138.814 15.9877 138.389 15.6307L133.14 11.2274C132.571 10.6731 132.885 9.70447 133.671 9.58972L140.636 8.96522C140.903 8.94103 141.159 8.84569 141.376 8.68915C141.594 8.5326 141.765 8.32058 141.873 8.07521L144.732 1.5541C145.086 0.840393 146.102 0.840393 146.454 1.55198Z" fill="#FDD835"/>
<path d="M146.247 8.46485L145.762 3.66005C145.743 3.39241 145.688 2.93359 146.117 2.93359C146.457 2.93359 146.642 3.64093 146.642 3.64093L148.095 7.49837C148.643 8.96615 148.418 9.46957 147.889 9.76697C147.281 10.1068 146.385 9.84132 146.247 8.46485Z" fill="#FFFF8D"/>
<path d="M152.238 15.2063L156.405 11.9543C156.611 11.7822 156.983 11.5082 156.686 11.196C156.45 10.9496 155.813 11.3043 155.813 11.3043L152.166 12.7296C151.078 13.1056 150.356 13.6621 150.292 14.3631C150.209 15.2977 151.048 16.0178 152.238 15.2063Z" fill="#F4B400"/>
</g>
</g>
<defs>
<clipPath id="clip0_675_1046">
<rect width="28" height="28" fill="white"/>
</clipPath>
<clipPath id="clip1_675_1046">
<rect width="28" height="28" fill="white"/>
</clipPath>
<clipPath id="clip2_675_1046">
<rect width="28" height="28" fill="white" transform="translate(33)"/>
</clipPath>
<clipPath id="clip3_675_1046">
<rect width="28" height="28" fill="white" transform="translate(33)"/>
</clipPath>
<clipPath id="clip4_675_1046">
<rect width="28" height="28" fill="white" transform="translate(66)"/>
</clipPath>
<clipPath id="clip5_675_1046">
<rect width="28" height="28" fill="white" transform="translate(66)"/>
</clipPath>
<clipPath id="clip6_675_1046">
<rect width="28" height="28" fill="white" transform="translate(99)"/>
</clipPath>
<clipPath id="clip7_675_1046">
<rect width="28" height="28" fill="white" transform="translate(99)"/>
</clipPath>
<clipPath id="clip8_675_1046">
<rect width="28" height="28" fill="white" transform="translate(132)"/>
</clipPath>
<clipPath id="clip9_675_1046">
<rect width="28" height="28" fill="white" transform="translate(132)"/>
</clipPath>
</defs>
</svg>
