<svg width="1440" height="998" viewBox="0 0 1440 998" fill="none" xmlns="http://www.w3.org/2000/svg">
<g clip-path="url(#clip0_659_1287)">
<g clip-path="url(#clip1_659_1287)">
<path d="M-563.247 928.89C-514.983 934.637 -379.523 956.219 -273.662 963.371C-167.801 970.523 -61.9398 977.676 71.9193 971.804C205.778 965.932 414.299 925.33 529.493 928.141C644.687 930.951 661.562 990.85 763.082 988.67C864.601 986.489 1018.43 925.921 1138.61 915.058C1258.8 904.195 1369 920.68 1484.19 923.491C1599.39 926.302 1710.24 919.781 1829.77 931.924C1949.31 944.068 2139.46 985.615 2201.4 996.353L2426.95 378.458L-34.3778 -519.98L-563.247 928.89Z" fill="url(#paint0_linear_659_1287)"/>
<path d="M-1252.02 906.92C-1195.6 913.637 -1037.28 938.862 -913.549 947.222C-789.818 955.581 -666.088 963.941 -509.634 957.078C-353.179 950.215 -109.461 902.759 25.1775 906.045C159.816 909.33 179.54 979.339 298.196 976.791C416.852 974.243 596.642 903.451 737.114 890.754C877.586 878.058 1006.39 897.325 1141.03 900.611C1275.67 903.896 1405.23 896.274 1544.94 910.467C1684.66 924.661 1906.91 973.221 1979.3 985.772L2242.92 263.576L-633.874 -786.517L-1252.02 906.92Z" fill="url(#paint1_linear_659_1287)"/>
</g>
</g>
<defs>
<linearGradient id="paint0_linear_659_1287" x1="667.416" y1="1378.11" x2="1196.29" y2="-70.761" gradientUnits="userSpaceOnUse">
<stop stop-color="#E3FBFD"/>
<stop offset="1" stop-color="#5034FF"/>
</linearGradient>
<linearGradient id="paint1_linear_659_1287" x1="186.382" y1="1431.97" x2="804.524" y2="-261.47" gradientUnits="userSpaceOnUse">
<stop stop-color="#E3FBFD"/>
<stop offset="1" stop-color="#5034FF"/>
</linearGradient>
<clipPath id="clip0_659_1287">
<rect width="1440" height="998" fill="white"/>
</clipPath>
<clipPath id="clip1_659_1287">
<rect width="2620.18" height="1473.85" fill="white" transform="matrix(0.965926 0.258819 0.258819 -0.965926 -515.459 993.316)"/>
</clipPath>
</defs>
</svg>
