<svg width="32" height="32" viewBox="0 0 32 32" fill="none" xmlns="http://www.w3.org/2000/svg">
<rect width="32" height="32" rx="16" fill="#5034FF"/>
<path d="M20.362 18.0696C20.2724 18.1591 20.1498 18.2157 20.0084 18.2157C19.735 18.2157 19.5087 17.9894 19.5087 17.716L19.5087 12.4929L14.2856 12.4929C14.0121 12.4929 13.7859 12.2666 13.7859 11.9932C13.7859 11.7197 14.0121 11.4935 14.2856 11.4935L20.0084 11.4935C20.2818 11.4935 20.5081 11.7197 20.5081 11.9932L20.5081 17.716C20.5081 17.8574 20.4515 17.98 20.362 18.0696Z" fill="white"/>
<path d="M20.2803 12.4262L12.3465 20.3599C12.1533 20.5532 11.8327 20.5532 11.6394 20.3599C11.4462 20.1666 11.4462 19.8461 11.6394 19.6528L19.5732 11.7191C19.7665 11.5258 20.087 11.5258 20.2803 11.7191C20.4736 11.9123 20.4736 12.2329 20.2803 12.4262Z" fill="white"/>
</svg>
