<svg width="76" height="32" viewBox="0 0 76 32" fill="none" xmlns="http://www.w3.org/2000/svg">
<rect width="32" height="32" rx="16" fill="#5034FF"/>
<path d="M75.4657 18.0696C75.3762 18.1591 75.2536 18.2157 75.1122 18.2157C74.8388 18.2157 74.6125 17.9894 74.6125 17.716L74.6125 12.4929L69.3893 12.4929C69.1159 12.4929 68.8896 12.2666 68.8896 11.9932C68.8896 11.7197 69.1159 11.4935 69.3893 11.4935L75.1122 11.4935C75.3856 11.4935 75.6119 11.7197 75.6119 11.9932L75.6119 17.716C75.6119 17.8574 75.5553 17.98 75.4657 18.0696Z" fill="white"/>
<path d="M75.384 12.4262L67.4503 20.3599C67.257 20.5532 66.9365 20.5532 66.7432 20.3599C66.5499 20.1666 66.5499 19.8461 66.7432 19.6528L74.6769 11.7191C74.8702 11.5258 75.1908 11.5258 75.384 11.7191C75.5773 11.9123 75.5773 12.2329 75.384 12.4262Z" fill="white"/>
</svg>
