<svg width="90" height="35" viewBox="0 0 90 35" fill="none" xmlns="http://www.w3.org/2000/svg">
<rect width="35" height="35" rx="17.5" fill="#5034FF"/>
<g clip-path="url(#clip0_675_972)">
<g clip-path="url(#clip1_675_972)">
<path opacity="0.8" fill-rule="evenodd" clip-rule="evenodd" d="M15.3593 17.4965L20.636 12.6777C20.8202 12.4949 20.8202 12.1949 20.636 12.0121C20.4518 11.8293 20.1532 11.8293 19.969 12.0121L14.3533 17.1402C14.2549 17.2387 14.2127 17.3699 14.2197 17.4965C14.2127 17.6277 14.2549 17.759 14.3529 17.8574L19.9685 22.9855C20.1527 23.1684 20.4513 23.1684 20.636 22.9855C20.8202 22.798 20.8202 22.5027 20.636 22.3199L15.3593 17.4965Z" fill="white"/>
</g>
</g>
<rect x="55" width="35" height="35" rx="17.5" fill="#5034FF"/>
<g clip-path="url(#clip2_675_972)">
<g clip-path="url(#clip3_675_972)">
<path opacity="0.8" fill-rule="evenodd" clip-rule="evenodd" d="M70.0258 12.0121C69.8411 11.8293 69.5421 11.8293 69.3569 12.0121C69.1727 12.1949 69.1727 12.4949 69.3569 12.6777L74.6458 17.4965L69.3569 22.3199C69.1727 22.5027 69.1727 22.798 69.3569 22.9855C69.5421 23.1684 69.8411 23.1684 70.0258 22.9855L75.6541 17.8574C75.7525 17.759 75.7947 17.6277 75.7872 17.4965C75.7938 17.3699 75.7516 17.2387 75.6532 17.1402L70.0249 12.0121H70.0258Z" fill="white"/>
</g>
</g>
<defs>
<clipPath id="clip0_675_972">
<rect width="15" height="15" fill="white" transform="translate(10 10)"/>
</clipPath>
<clipPath id="clip1_675_972">
<rect width="15" height="15" fill="white" transform="translate(10 10)"/>
</clipPath>
<clipPath id="clip2_675_972">
<rect width="15" height="15" fill="white" transform="translate(65 10)"/>
</clipPath>
<clipPath id="clip3_675_972">
<rect width="15" height="15" fill="white" transform="translate(65 10)"/>
</clipPath>
</defs>
</svg>
