<svg width="24" height="24" viewBox="0 0 24 24" fill="none" xmlns="http://www.w3.org/2000/svg">
<path d="M16.2094 12.6729C15.633 12.4269 14.9651 12.5886 14.5679 13.0736L13.4009 14.5007C11.784 13.5622 10.4343 12.2125 9.49575 10.5956L10.9193 9.43208C11.4044 9.03489 11.5696 8.36703 11.32 7.79057L9.63283 3.85375C9.36921 3.23511 8.70487 2.89064 8.04756 3.03124L4.11074 3.87484C3.46398 4.01193 3 4.58488 3 5.24921C3 13.5693 9.45005 20.3814 17.6225 20.9578C17.7806 20.9684 17.9423 20.9789 18.104 20.9859C18.104 20.9859 18.104 20.9859 18.1075 20.9859C18.322 20.993 18.5329 21 18.7508 21C19.4151 21 19.9881 20.536 20.1252 19.8893L20.9688 15.9524C21.1094 15.2951 20.7649 14.6308 20.1462 14.3672L16.2094 12.68V12.6729Z" fill="white"/>
</svg>
