<svg width="14" height="16" viewBox="0 0 14 16" fill="none" xmlns="http://www.w3.org/2000/svg">
<path d="M12.9999 6.49956H8.49992V1.9996C8.49992 1.44742 8.05211 0.99961 7.49993 0.99961H6.49994C5.94775 0.99961 5.49995 1.44742 5.49995 1.9996V6.49956H0.99999C0.447808 6.49956 0 6.94736 0 7.49955V8.49954C0 9.05172 0.447808 9.49953 0.99999 9.49953H5.49995V13.9995C5.49995 14.5517 5.94775 14.9995 6.49994 14.9995H7.49993C8.05211 14.9995 8.49992 14.5517 8.49992 13.9995V9.49953H12.9999C13.5521 9.49953 13.9999 9.05172 13.9999 8.49954V7.49955C13.9999 6.94736 13.5521 6.49956 12.9999 6.49956Z" fill="white"/>
</svg>
