<svg width="16" height="16" viewBox="0 0 16 16" fill="none" xmlns="http://www.w3.org/2000/svg">
<path d="M13.8826 6.61149C13.8826 11.239 7.93292 15.2054 7.93292 15.2054C7.93292 15.2054 1.98328 11.239 1.98328 6.61149C1.98328 5.03355 2.61011 3.52024 3.72589 2.40446C4.84166 1.28869 6.35497 0.661852 7.93292 0.661852C9.51086 0.661852 11.0242 1.28869 12.1399 2.40446C13.2557 3.52024 13.8826 5.03355 13.8826 6.61149Z" stroke="#E5E9F0" stroke-width="1.27389"/>
<path d="M7.93279 8.59433C9.02809 8.59433 9.916 7.70641 9.916 6.61111C9.916 5.51581 9.02809 4.6279 7.93279 4.6279C6.83749 4.6279 5.94958 5.51581 5.94958 6.61111C5.94958 7.70641 6.83749 8.59433 7.93279 8.59433Z" stroke="#E5E9F0" stroke-width="1.27389"/>
</svg>
