<svg width="21" height="21" viewBox="0 0 21 21" fill="none" xmlns="http://www.w3.org/2000/svg">
<mask id="mask0_656_1217" style="mask-type:luminance" maskUnits="userSpaceOnUse" x="0" y="0" width="21" height="21">
<path d="M21 0H0V21H21V0Z" fill="white"/>
</mask>
<g mask="url(#mask0_656_1217)">
<path fill-rule="evenodd" clip-rule="evenodd" d="M10.1528 0.0921742C10.2585 0.0317709 10.3782 0 10.5 0C10.6218 0 10.7415 0.0317709 10.8472 0.0921742L20.6472 5.69217C20.7543 5.75337 20.8434 5.8418 20.9054 5.94851C20.9673 6.05521 21 6.17639 21 6.29977V7.30777C21 10.3961 19.9939 13.4004 18.134 15.8659C16.274 18.3314 13.6615 20.1238 10.6918 20.9718C10.5664 21.0075 10.4336 21.0075 10.3082 20.9718C7.33854 20.1238 4.726 18.3314 2.86603 15.8659C1.00607 13.4004 -3.84851e-05 10.3961 1.10411e-09 7.30777V6.29977C3.9799e-05 6.17639 0.0326918 6.05521 0.0946477 5.94851C0.156604 5.8418 0.245662 5.75337 0.3528 5.69217L10.1528 0.0921742ZM9.9008 14.9952L15.946 7.43657L14.854 6.56297L9.6992 13.0044L6.048 9.96217L5.152 11.0374L9.9008 14.9952Z" fill="#FFD600"/>
</g>
</svg>
