<svg width="23" height="23" viewBox="0 0 23 23" fill="none" xmlns="http://www.w3.org/2000/svg">
<path d="M15.9338 13.6036C15.8427 13.6947 15.7182 13.7522 15.5744 13.7522C15.2965 13.7522 15.0665 13.5222 15.0665 13.2443L15.0665 7.93511L9.75733 7.93511C9.47942 7.93511 9.24942 7.70511 9.24942 7.42719C9.24942 7.14928 9.47942 6.91928 9.75733 6.91928L15.5744 6.91927C15.8523 6.91927 16.0823 7.14927 16.0823 7.42719L16.0823 13.2443C16.0823 13.388 16.0248 13.5126 15.9338 13.6036Z" fill="#5034FF"/>
<path d="M15.8508 7.86757L7.7864 15.9319C7.58994 16.1284 7.2641 16.1284 7.06765 15.9319C6.87119 15.7355 6.87119 15.4096 7.06765 15.2132L15.132 7.14882C15.3285 6.95236 15.6543 6.95236 15.8508 7.14882C16.0472 7.34528 16.0472 7.67111 15.8508 7.86757Z" fill="#5034FF"/>
</svg>
