<svg width="2923" height="2131" viewBox="0 0 2923 2131" fill="none" xmlns="http://www.w3.org/2000/svg">
<g clip-path="url(#clip0_675_760)">
<path d="M-46.9377 1353.77C1.2606 1360.16 136.463 1383.56 242.252 1392.13C348.041 1400.7 453.831 1409.27 587.799 1405.19C721.767 1401.1 930.877 1363.28 1046.06 1367.63C1161.24 1371.99 1177.32 1432.12 1278.89 1431.3C1380.46 1430.48 1535.13 1371.95 1655.49 1362.69C1775.85 1353.44 1885.86 1371.4 2001.04 1375.75C2116.22 1380.1 2227.18 1375.06 2346.58 1388.81C2465.98 1402.55 2655.63 1446.65 2717.44 1458.22L2951.3 843.201L501.427 -88.3555L-46.9377 1353.77Z" fill="#030228"/>
<path d="M-735.568 1322.58C-679.234 1330.06 -521.21 1357.41 -397.564 1367.42C-273.917 1377.44 -150.271 1387.45 6.31101 1382.68C162.893 1377.91 407.301 1333.7 541.926 1338.79C676.551 1343.88 695.343 1414.16 814.06 1413.2C932.777 1412.24 1113.55 1343.84 1254.23 1333.02C1394.9 1322.19 1523.48 1343.19 1658.1 1348.28C1792.73 1353.36 1922.42 1347.47 2061.98 1363.54C2201.53 1379.6 2423.19 1431.14 2495.43 1444.67L2768.76 725.833L-94.6401 -362.97L-735.568 1322.58Z" fill="#030228" fill-opacity="0.75"/>
</g>
<defs>
<clipPath id="clip0_675_760">
<rect width="2620.18" height="1473.85" fill="white" transform="matrix(0.962683 0.271795 0.271795 -0.962683 0 1418.85)"/>
</clipPath>
</defs>
</svg>
