<svg width="2913" height="2102" viewBox="0 0 2913 2102" fill="none" xmlns="http://www.w3.org/2000/svg">
<g clip-path="url(#clip0_675_1449)">
<path d="M-47.7931 742.655C0.476161 736.908 135.95 715.324 241.822 708.17C347.695 701.017 453.567 693.864 587.44 699.737C721.313 705.609 929.856 746.216 1045.06 743.405C1160.27 740.593 1177.14 680.688 1278.68 682.869C1380.21 685.05 1534.05 745.624 1654.24 756.488C1774.44 767.352 1884.66 750.865 1999.86 748.054C2115.07 745.243 2225.93 751.765 2345.48 739.62C2465.03 727.475 2655.2 685.924 2717.15 675.185L2942.72 1293.14L481.132 2191.68L-47.7931 742.655Z" fill="#030228"/>
<path d="M-736.634 764.627C-680.217 757.91 -521.875 732.682 -398.132 724.321C-274.388 715.961 -150.645 707.6 5.82583 714.464C162.297 721.328 406.041 768.789 540.693 765.503C675.346 762.217 695.072 692.201 813.741 694.749C932.409 697.298 1112.22 768.097 1252.7 780.795C1393.19 793.493 1522.01 774.223 1656.66 770.938C1791.31 767.652 1920.89 775.275 2060.62 761.08C2200.35 746.885 2422.62 698.32 2495.03 685.768L2758.67 1408.04L-118.427 2458.24L-736.634 764.627Z" fill="#030228" fill-opacity="0.75"/>
</g>
<defs>
<clipPath id="clip0_675_1449">
<rect width="2620.18" height="1473.85" fill="white" transform="translate(0 678.223) rotate(-15)"/>
</clipPath>
</defs>
</svg>
